<svg xmlns="http://www.w3.org/2000/svg" viewBox="0 0 240 260" role="img" aria-label="Heart matryoshka">
  <defs><linearGradient id="m" x1="32" x2="214" y1="18" y2="248"><stop stop-color="#ff8bd8"/><stop offset=".5" stop-color="#b9a4ff"/><stop offset="1" stop-color="#80f2dc"/></linearGradient></defs>
  <path d="M120 18c46 0 76 41 65 88 24 24 39 58 39 95 0 33-47 47-104 47S16 234 16 201c0-37 15-71 39-95-11-47 19-88 65-88Z" fill="url(#m)"/>
  <circle cx="120" cy="82" r="46" fill="#f1c4ad"/>
  <path d="M82 78c16-44 62-51 85-15-18-1-33-1-47-16-10 18-22 24-38 31Z" fill="#2b1720"/>
  <ellipse cx="102" cy="88" rx="7" ry="8" fill="#1b1120"/><ellipse cx="138" cy="88" rx="7" ry="8" fill="#1b1120"/>
  <path d="M105 111c11 8 22 8 32 0" fill="none" stroke="#934661" stroke-width="5" stroke-linecap="round"/>
  <path d="M120 204s-42-26-42-56c0-14 10-24 23-24 9 0 15 4 19 12 4-8 10-12 19-12 13 0 23 10 23 24 0 30-42 56-42 56Z" fill="#fff8ff" opacity=".92"/>
  <text x="120" y="159" text-anchor="middle" font-family="Arial, sans-serif" font-size="18" font-weight="800" fill="#1b1120">RU</text>
</svg>
