<svg xmlns="http://www.w3.org/2000/svg" viewBox="0 0 360 240" role="img" aria-label="Aurora postcard">
  <defs><linearGradient id="p" x1="0" x2="1" y1="0" y2="1"><stop stop-color="#171139"/><stop offset=".55" stop-color="#12314a"/><stop offset="1" stop-color="#22133d"/></linearGradient><linearGradient id="a" x1="30" x2="330" y1="64" y2="90"><stop stop-color="#80f2dc"/><stop offset=".5" stop-color="#ff8bd8"/><stop offset="1" stop-color="#ffd58c"/></linearGradient></defs>
  <rect x="12" y="18" width="336" height="204" rx="24" fill="#fff8ff" opacity=".9"/>
  <rect x="26" y="34" width="308" height="172" rx="18" fill="url(#p)"/>
  <path d="M28 100c58-58 96 18 148-24 58-47 91 11 156-26v58c-59 28-92-14-145 22-61 42-102-24-159 28Z" fill="url(#a)" opacity=".86"/>
  <g fill="#fff"><circle cx="82" cy="64" r="2"/><circle cx="143" cy="55" r="2"/><circle cx="234" cy="72" r="3"/><circle cx="292" cy="53" r="2"/></g>
  <path d="M42 182c46-40 95-36 130-15 50 29 94 21 148-20v59H26Z" fill="#0f0b25"/>
  <path d="M50 202h250" stroke="#80f2dc" stroke-width="3" stroke-linecap="round" opacity=".45"/>
</svg>
